<svg width="50" height="50" viewBox="0 0 50 50" fill="none" xmlns="http://www.w3.org/2000/svg">
<g clip-path="url(#clip0_347_15668)">
<path d="M46.5604 9.829H43.829C43.646 9.04971 43.3386 8.31797 42.9273 7.65674L44.8601 5.72402C45.5109 5.07314 45.5109 4.01787 44.8601 3.36699C44.2093 2.71611 43.1539 2.71611 42.503 3.36699L40.5701 5.29951C39.9088 4.88828 39.1772 4.58086 38.3978 4.39785V1.6667C38.3978 0.746191 37.6516 0 36.7311 0C35.8106 0 35.0644 0.746191 35.0644 1.6667V4.39814C34.2851 4.58115 33.5533 4.88857 32.8921 5.2998L30.9594 3.36709C30.3086 2.71621 29.2532 2.71621 28.6023 3.36709C27.9515 4.01797 27.9515 5.07324 28.6023 5.72412L30.5351 7.65684C30.1238 8.31816 29.8164 9.04971 29.6334 9.8291H26.9021C25.9816 9.8291 25.2354 10.5753 25.2354 11.4958C25.2354 12.4163 25.9815 13.1623 26.9021 13.1623H29.6334C29.8164 13.9416 30.1238 14.6733 30.5351 15.3347L28.6023 17.2673C27.9515 17.9181 27.9515 18.9734 28.6023 19.6243C29.2531 20.2752 30.3083 20.2752 30.9594 19.6243L32.8922 17.6917C33.5535 18.1029 34.2851 18.4103 35.0645 18.5934V21.3248C35.0645 22.2452 35.8106 22.9915 36.7312 22.9915C37.6517 22.9915 38.3979 22.2453 38.3979 21.3248V18.5934C39.1771 18.4103 39.9089 18.1029 40.5702 17.6917L42.503 19.6245C43.1538 20.2753 44.2092 20.2754 44.8601 19.6245C45.5109 18.9736 45.5109 17.9184 44.8601 17.2675L42.9273 15.3348C43.3386 14.6734 43.646 13.9419 43.829 13.1624H46.5604C47.4808 13.1624 48.2271 12.4162 48.2271 11.4957C48.2271 10.5752 47.4808 9.829 46.5604 9.829ZM36.7311 15.4543C34.5481 15.4543 32.7724 13.6784 32.7724 11.4956C32.7724 9.31279 34.5482 7.53691 36.7311 7.53691C38.914 7.53691 40.6898 9.31269 40.6898 11.4956C40.6898 13.6785 38.914 15.4543 36.7311 15.4543Z" fill="white"/>
<path d="M46.5595 36.8369H43.8281C43.6451 36.0576 43.3377 35.3259 42.9265 34.6646L44.8592 32.7318C45.5101 32.0811 45.5101 31.0257 44.8592 30.3748C44.2084 29.724 43.153 29.7239 42.5022 30.3748L40.5693 32.3076C39.908 31.8964 39.1765 31.589 38.397 31.406V28.6745C38.397 27.7541 37.6508 27.0078 36.7303 27.0078C35.8098 27.0078 35.0636 27.754 35.0636 28.6745V31.406C34.2843 31.589 33.5527 31.8964 32.8913 32.3076L30.9585 30.3749C30.3077 29.7241 29.2523 29.724 28.6015 30.3749C27.9506 31.0258 27.9506 32.0811 28.6015 32.7319L30.5341 34.6646C30.1229 35.326 29.8154 36.0575 29.6324 36.837H26.9011C25.9807 36.837 25.2344 37.5832 25.2344 38.5037C25.2344 39.4242 25.9806 40.1704 26.9011 40.1704H29.6324C29.8154 40.9497 30.1229 41.6814 30.5341 42.3427L28.6015 44.2754C27.9506 44.9263 27.9506 45.9815 28.6015 46.6324C29.2522 47.2833 30.3076 47.2833 30.9585 46.6324L32.8912 44.6997C33.5525 45.1109 34.2841 45.4184 35.0635 45.6014V48.3326C35.0635 49.253 35.8097 49.9993 36.7302 49.9993C37.6507 49.9993 38.3969 49.2531 38.3969 48.3326V45.6013C39.1762 45.4183 39.9079 45.1108 40.5692 44.6996L42.5021 46.6323C43.1528 47.2832 44.2082 47.2833 44.8591 46.6323C45.51 45.9814 45.51 44.9262 44.8591 44.2753L42.9264 42.3427C43.3376 41.6813 43.645 40.9498 43.828 40.1704H46.5594C47.4798 40.1704 48.2261 39.4242 48.2261 38.5037C48.2261 37.5832 47.48 36.8369 46.5595 36.8369ZM36.7305 42.4621C34.5476 42.4621 32.7718 40.6863 32.7718 38.5034C32.7718 36.3205 34.5476 34.5447 36.7305 34.5447C38.9134 34.5447 40.6893 36.3206 40.6893 38.5034C40.6893 40.6862 38.9134 42.4621 36.7305 42.4621Z" fill="white"/>
<path d="M27.2367 23.3319H23.6456C23.4336 22.2668 23.0164 21.2351 22.3937 20.3004L24.9303 17.7638C25.5812 17.1129 25.5812 16.0576 24.9303 15.4067C24.2795 14.7559 23.2241 14.7559 22.5732 15.4067L20.0365 17.9434C19.1019 17.3206 18.0701 16.9033 17.005 16.6914V13.1003C17.005 12.1799 16.2588 11.4336 15.3383 11.4336C14.4179 11.4336 13.6716 12.1798 13.6716 13.1003V16.6914C12.6064 16.9034 11.5747 17.3206 10.64 17.9434L8.10342 15.4067C7.45264 14.7559 6.39727 14.7559 5.74639 15.4067C5.09551 16.0576 5.09551 17.1129 5.74639 17.7638L8.28301 20.3004C7.66025 21.2351 7.24287 22.2668 7.03086 23.3319H3.44014C2.51973 23.3319 1.77344 24.0781 1.77344 24.9986C1.77344 25.9191 2.51963 26.6653 3.44014 26.6653H7.03115C7.24317 27.7305 7.66035 28.7622 8.2833 29.6969L5.74668 32.2335C5.0958 32.8844 5.0958 33.9396 5.74668 34.5905C6.39746 35.2414 7.45283 35.2415 8.10371 34.5905L10.6403 32.0539C11.575 32.6767 12.6067 33.0939 13.6719 33.3059V36.897C13.6719 37.8174 14.4181 38.5637 15.3386 38.5637C16.2591 38.5637 17.0053 37.8175 17.0053 36.897V33.3059C18.0704 33.0938 19.1021 32.6767 20.0368 32.0539L22.5734 34.5905C23.2242 35.2414 24.2796 35.2415 24.9305 34.5905C25.5814 33.9397 25.5814 32.8846 24.9305 32.2336L22.3937 29.6968C23.0164 28.7621 23.4337 27.7305 23.6456 26.6652H27.2367C28.1571 26.6652 28.9034 25.919 28.9034 24.9985C28.9034 24.078 28.1572 23.3319 27.2367 23.3319ZM18.9752 28.6354C16.9701 30.6408 13.7069 30.6408 11.7018 28.6354C9.69639 26.6302 9.69639 23.3674 11.7018 21.3621C13.7072 19.3567 16.97 19.3569 18.9752 21.3621C20.9804 23.3674 20.9804 26.6302 18.9752 28.6354Z" fill="white"/>
</g>
<defs>
<clipPath id="clip0_347_15668">
<rect width="50" height="50" fill="white"/>
</clipPath>
</defs>
</svg>
