<svg width="51" height="51" viewBox="0 0 51 51" fill="none" xmlns="http://www.w3.org/2000/svg">
<g id="carbon:delivery">
<path id="Vector" d="M6.64941 25.4023H25.3994V28.5273H6.64941V25.4023ZM3.52441 17.5898H19.1494V20.7148H3.52441V17.5898Z" fill="white"/>
<path id="Vector_2" d="M47.1478 26.3492L42.4603 15.4117C42.34 15.1306 42.1398 14.891 41.8845 14.7227C41.6293 14.5543 41.3302 14.4647 41.0244 14.4648H36.3369V11.3398C36.3369 10.9254 36.1723 10.528 35.8792 10.235C35.5862 9.94196 35.1888 9.77734 34.7744 9.77734H9.77439V12.9023H33.2119V32.5211C32.4999 32.9345 31.8768 33.4848 31.3785 34.1402C30.8803 34.7956 30.5167 35.5432 30.3088 36.3398H20.49C20.1097 34.8669 19.2053 33.5833 17.9462 32.7295C16.6872 31.8758 15.16 31.5105 13.6509 31.7022C12.1419 31.8938 10.7545 32.6293 9.74888 33.7707C8.74328 34.9121 8.18848 36.3811 8.18848 37.9023C8.18848 39.4236 8.74328 40.8925 9.74888 42.034C10.7545 43.1754 12.1419 43.9109 13.6509 44.1025C15.16 44.2942 16.6872 43.9289 17.9462 43.0752C19.2053 42.2214 20.1097 40.9377 20.49 39.4648H30.3088C30.6487 40.8058 31.426 41.9952 32.5178 42.8448C33.6096 43.6944 34.9535 44.1557 36.3369 44.1557C37.7203 44.1557 39.0642 43.6944 40.156 42.8448C41.2478 41.9952 42.0251 40.8058 42.365 39.4648H45.7119C46.1263 39.4648 46.5237 39.3002 46.8167 39.0072C47.1098 38.7142 47.2744 38.3167 47.2744 37.9023V26.9648C47.2745 26.7532 47.2314 26.5437 47.1478 26.3492ZM14.4619 41.0273C13.8438 41.0273 13.2396 40.8441 12.7257 40.5007C12.2118 40.1573 11.8113 39.6693 11.5748 39.0982C11.3382 38.5272 11.2764 37.8989 11.3969 37.2927C11.5175 36.6865 11.8151 36.1297 12.2522 35.6926C12.6892 35.2556 13.246 34.958 13.8522 34.8374C14.4584 34.7168 15.0868 34.7787 15.6578 35.0152C16.2288 35.2517 16.7169 35.6523 17.0602 36.1662C17.4036 36.6801 17.5869 37.2843 17.5869 37.9023C17.5861 38.7309 17.2566 39.5253 16.6707 40.1111C16.0848 40.697 15.2904 41.0265 14.4619 41.0273ZM36.3369 17.5898H39.9931L43.3431 25.4023H36.3369V17.5898ZM36.3369 41.0273C35.7188 41.0273 35.1146 40.8441 34.6007 40.5007C34.0868 40.1573 33.6863 39.6693 33.4498 39.0982C33.2132 38.5272 33.1514 37.8989 33.2719 37.2927C33.3925 36.6865 33.6901 36.1297 34.1272 35.6926C34.5642 35.2556 35.121 34.958 35.7272 34.8374C36.3334 34.7168 36.9618 34.7787 37.5328 35.0152C38.1038 35.2517 38.5918 35.6523 38.9352 36.1662C39.2786 36.6801 39.4619 37.2843 39.4619 37.9023C39.4611 38.7309 39.1316 39.5253 38.5457 40.1111C37.9598 40.697 37.1654 41.0265 36.3369 41.0273ZM44.1494 36.3398H42.365C42.0208 35.0015 41.2422 33.8151 40.1513 32.9668C39.0604 32.1185 37.7188 31.6562 36.3369 31.6523V28.5273H44.1494V36.3398Z" fill="white"/>
</g>
</svg>
