<svg width="34" height="47" viewBox="0 0 34 47" fill="none" xmlns="http://www.w3.org/2000/svg">
<g id="Group">
<path id="Vector" d="M15.6208 12.8344C16.4125 11.4115 16.8083 10.7031 17.4 10.7031C17.9917 10.7031 18.3875 11.4115 19.1792 12.8344L19.3833 13.201C19.6083 13.6052 19.7208 13.8052 19.8958 13.9385C20.0729 14.0719 20.2917 14.1219 20.7292 14.2198L21.125 14.3115C22.6625 14.6594 23.4312 14.8323 23.6146 15.4198C23.7979 16.0094 23.2729 16.6219 22.225 17.8469L21.9542 18.1635C21.6562 18.5115 21.5062 18.6844 21.4396 18.901C21.3729 19.1177 21.3958 19.349 21.4396 19.8135L21.4812 20.2365C21.6396 21.8719 21.7187 22.6906 21.2417 23.0531C20.7625 23.4156 20.0417 23.0844 18.6021 22.4219L18.2312 22.251C17.8208 22.0635 17.6167 21.9698 17.4 21.9698C17.1833 21.9698 16.9792 22.0635 16.5687 22.251L16.1979 22.4219C14.7583 23.0865 14.0375 23.4156 13.5583 23.0531C13.0792 22.6906 13.1604 21.8719 13.3187 20.2365L13.3604 19.8135C13.4042 19.349 13.4271 19.1177 13.3604 18.901C13.2937 18.6865 13.1437 18.5115 12.8458 18.1635L12.575 17.8469C11.5271 16.6219 11.0021 16.0094 11.1854 15.4198C11.3687 14.8323 12.1375 14.6594 13.675 14.3115L14.0708 14.2198C14.5083 14.1219 14.7271 14.074 14.9042 13.9385C15.0792 13.8052 15.1917 13.6052 15.4167 13.201L15.6208 12.8344Z" stroke="white" stroke-width="4"/>
<path id="Vector_2" d="M7.71468 29.4531L6.38759 34.2927C5.07926 39.0677 4.42509 41.4552 5.29801 42.7615C5.60426 43.2198 6.01468 43.5865 6.49176 43.8302C7.85009 44.5219 9.95009 43.4281 14.148 41.2406C15.5438 40.5115 16.2438 40.149 16.9855 40.0698C17.2611 40.0403 17.5391 40.0403 17.8147 40.0698C18.5563 40.149 19.2543 40.5135 20.6522 41.2406C24.8501 43.4281 26.9501 44.5219 28.3084 43.8302C28.7855 43.5865 29.1959 43.2198 29.5022 42.7615C30.3772 41.4552 29.7209 39.0677 28.4126 34.2927L27.0855 29.4531" stroke="white" stroke-width="4" stroke-linecap="round"/>
<path id="Vector_3" d="M3.85808 11.5305C2.60967 14.649 2.47605 18.1027 3.47979 21.3083C4.48353 24.5138 6.56309 27.2746 9.36708 29.1241C12.1711 30.9737 15.5276 31.7985 18.8694 31.4593C22.2113 31.1201 25.3336 29.6377 27.7088 27.2625C30.084 24.8873 31.5664 21.765 31.9056 18.4231C32.2448 15.0813 31.4199 11.7248 29.5704 8.92079C27.7209 6.1168 24.9601 4.03724 21.7546 3.0335C18.549 2.02976 15.0952 2.16338 11.9768 3.41179" stroke="white" stroke-width="4" stroke-linecap="round"/>
</g>
</svg>
