<svg width="43" height="42" viewBox="0 0 43 42" fill="none" xmlns="http://www.w3.org/2000/svg">
<g id="fluent:call-transfer-32-filled">
<path id="Vector" d="M25.4377 3.9375C25.4377 3.5894 25.576 3.25556 25.8221 3.00942C26.0683 2.76328 26.4021 2.625 26.7502 2.625H38.5627C38.9108 2.625 39.2446 2.76328 39.4908 3.00942C39.7369 3.25556 39.8752 3.5894 39.8752 3.9375V15.75C39.8752 16.0981 39.7369 16.4319 39.4908 16.6781C39.2446 16.9242 38.9108 17.0625 38.5627 17.0625C38.2146 17.0625 37.8807 16.9242 37.6346 16.6781C37.3885 16.4319 37.2502 16.0981 37.2502 15.75V7.10588L30.9594 13.3967C30.7118 13.6358 30.3803 13.7681 30.0362 13.7651C29.692 13.7621 29.3628 13.624 29.1195 13.3807C28.8761 13.1374 28.7381 12.8082 28.7351 12.464C28.7321 12.1199 28.8644 11.7884 29.1035 11.5408L35.3943 5.25H26.7502C26.4021 5.25 26.0683 5.11172 25.8221 4.86558C25.576 4.61944 25.4377 4.2856 25.4377 3.9375ZM15.6097 18.4341L18.4263 15.8511C19.1971 15.1439 19.7391 14.2227 19.9828 13.2054C20.2264 12.1882 20.1607 11.1213 19.7939 10.1417L18.5904 6.92869C18.1412 5.72986 17.2518 4.74745 16.1034 4.18166C14.955 3.61588 13.6341 3.50931 12.4098 3.88369C7.90531 5.26181 4.44294 9.44869 5.50869 14.4217C6.20956 17.6925 7.54963 21.798 10.0919 26.1673C12.2222 29.8472 14.9022 33.18 18.0391 36.0504C21.806 39.4787 27.1872 38.6216 30.6496 35.3942C31.5777 34.5288 32.1409 33.3421 32.2243 32.0759C32.3077 30.8097 31.9051 29.5593 31.0985 28.5797L28.8922 25.8996C28.2272 25.0914 27.3359 24.5003 26.3326 24.2024C25.3293 23.9044 24.2599 23.9132 23.2616 24.2274L19.6181 25.3759C19.4776 25.2315 19.3162 25.0596 19.1377 24.8614C18.3886 24.0327 17.7259 23.1298 17.1598 22.1668C16.609 21.1948 16.1587 20.1693 15.8157 19.1061C15.7425 18.8835 15.6737 18.6595 15.6097 18.4341ZM28.0627 15.75C28.0627 16.0981 27.9244 16.4319 27.6783 16.6781C27.4321 16.9242 27.0983 17.0625 26.7502 17.0625C26.4021 17.0625 26.0683 16.9242 25.8221 16.6781C25.576 16.4319 25.4377 16.0981 25.4377 15.75C25.4377 15.4019 25.576 15.0681 25.8221 14.8219C26.0683 14.5758 26.4021 14.4375 26.7502 14.4375C27.0983 14.4375 27.4321 14.5758 27.6783 14.8219C27.9244 15.0681 28.0627 15.4019 28.0627 15.75ZM23.4689 20.3438C23.817 20.3438 24.1509 20.2055 24.397 19.9593C24.6432 19.7132 24.7814 19.3793 24.7814 19.0312C24.7814 18.6832 24.6432 18.3493 24.397 18.1032C24.1509 17.857 23.817 17.7188 23.4689 17.7188C23.1208 17.7188 22.787 17.857 22.5409 18.1032C22.2947 18.3493 22.1564 18.6832 22.1564 19.0312C22.1564 19.3793 22.2947 19.7132 22.5409 19.9593C22.787 20.2055 23.1208 20.3438 23.4689 20.3438Z" fill="white"/>
</g>
</svg>
