<svg width="43" height="43" viewBox="0 0 43 43" fill="none" xmlns="http://www.w3.org/2000/svg">
<g id="f7:cart-fill">
<path id="Vector" d="M8.61128 7.17174L8.63355 7.32456L11.446 26.6246L8.61128 7.17174ZM8.61128 7.17174H8.45684M8.61128 7.17174H8.45684M8.45684 7.17174H2.51609C1.91578 7.17174 1.39342 6.64056 1.39342 6.01456C1.39342 5.40644 1.91443 4.87388 2.51534 4.87388H8.68634C9.56522 4.87388 10.0814 5.04312 10.4016 5.33884C10.7229 5.63558 10.8829 6.09214 10.9693 6.75827L10.9692 6.75828L10.9699 6.76311L11.3217 8.99511L11.3455 9.14588H11.4981H40.1856C40.6336 9.14588 40.9883 9.28004 41.2287 9.4959C41.4667 9.70961 41.6058 10.0148 41.6068 10.3878C41.5974 10.6028 41.5746 10.8171 41.5387 11.0293L41.5383 11.0324L40.132 20.3316L40.1319 20.3324C39.9507 21.5664 39.5394 22.5498 38.8782 23.2236C38.2208 23.8935 37.2985 24.2755 36.0546 24.2755H13.7481H13.5403M8.45684 7.17174L13.5403 24.2755M13.5403 24.2755L13.5716 24.481M13.5403 24.2755L13.5716 24.481M13.5716 24.481L13.8527 26.3259C13.8527 26.326 13.8527 26.3262 13.8528 26.3263C13.9357 26.8879 14.1407 27.3698 14.472 27.7133C14.8065 28.0602 15.2581 28.2536 15.8046 28.2536H36.0201C36.6062 28.2536 37.124 28.7361 37.124 29.3936C37.124 30.0502 36.6062 30.5327 36.0201 30.5327H15.5061C14.2706 30.5327 13.3526 30.1551 12.6975 29.4916M13.5716 24.481L12.6975 29.4916M12.6975 29.4916C12.0387 28.8245 11.6276 27.85 11.446 26.6251L12.6975 29.4916ZM16.8966 39.076H16.8951C15.3933 39.076 14.2087 37.9065 14.2087 36.4068C14.2087 34.9244 15.394 33.7376 16.8951 33.7376L16.8959 33.7376C17.2467 33.7361 17.5944 33.8041 17.9188 33.9377C18.2432 34.0713 18.5379 34.2678 18.786 34.5159C19.0341 34.764 19.2306 35.0587 19.3642 35.3831C19.4978 35.7076 19.5658 36.0552 19.5643 36.4061L19.5643 36.4083C19.5672 36.7594 19.5002 37.1076 19.3671 37.4326C19.2341 37.7576 19.0377 38.0528 18.7894 38.3011C18.5411 38.5494 18.2459 38.7458 17.9209 38.8788C17.5959 39.0119 17.2477 39.0789 16.8966 39.076ZM33.3306 39.076C31.8453 39.076 30.6442 37.9058 30.6442 36.4068C30.6442 34.9251 31.8461 33.7376 33.3306 33.7376C34.8324 33.7376 36.017 34.9236 36.017 36.4068C36.017 37.9065 34.8331 39.076 33.3306 39.076Z" fill="white" stroke="white" stroke-width="0.357143"/>
</g>
</svg>
