<svg width="16" height="16" viewBox="0 0 16 16" fill="none" xmlns="http://www.w3.org/2000/svg">
    <g id="Group">
        <path id="Vector"
            d="M11.8484 11.3652L10.2904 10.9753C10.9477 10.3912 11.4837 9.58782 11.8427 8.7072C12.3452 8.59598 12.8062 8.17769 12.8821 7.25607C12.9536 6.3881 12.6884 6.00122 12.3325 5.83242C12.3282 5.72905 12.3234 5.62786 12.3172 5.52885C12.7748 2.99385 10.9638 2.108 10.8229 2.06525C10.587 1.70672 8.98799 -0.473678 6.08704 1.29629C5.66221 1.55537 4.98834 2.06569 4.6285 2.57949C4.19582 3.12296 3.88134 3.90936 3.75224 5.04602C3.66282 5.05561 3.57385 5.06957 3.48574 5.08963C3.46219 4.53177 3.49316 2.88786 4.53472 1.71893C5.30499 0.854887 6.47479 0.416539 8.0101 0.416539C9.54802 0.416539 10.7418 0.858377 11.5583 1.72897C12.8995 3.15959 12.7783 5.29463 12.777 5.316C12.7691 5.43028 12.8564 5.52929 12.9702 5.5367C12.9754 5.53714 12.9793 5.53714 12.9846 5.53714C13.0928 5.53714 13.1839 5.45296 13.1918 5.34305C13.1983 5.2484 13.3278 3.01173 11.8636 1.44677C10.9656 0.486762 9.66884 0 8.00966 0C6.34874 0 5.07426 0.48589 4.22112 1.44459C2.97412 2.84599 3.04085 4.78562 3.07618 5.23706C2.59073 5.49658 2.24005 6.06141 2.33949 7.27047C2.47078 8.86379 3.39589 9.41903 4.27084 9.41903C4.44095 9.41903 4.59099 9.38239 4.72358 9.31478C5.2243 9.63885 6.02816 9.91975 7.31616 9.97209C7.44265 10.1623 7.70696 10.2927 8.01402 10.2927C8.44234 10.2927 8.78997 10.0371 8.78997 9.72173C8.78997 9.40638 8.44234 9.15078 8.01402 9.15078C7.66466 9.15078 7.36937 9.32045 7.27211 9.5538C6.42725 9.51367 5.82229 9.37018 5.39005 9.18917C4.79991 8.39578 4.51946 7.04889 4.51946 6.2795C4.51946 5.99468 4.52862 5.72993 4.54519 5.48349C7.27385 5.57509 8.89595 4.47202 9.78225 3.51376C10.9237 4.65128 11.3298 6.19095 11.465 6.92677C11.2007 8.94535 9.76131 11.0878 8.01402 11.0878C7.26251 11.0878 6.5677 10.6913 5.99893 10.0789C5.41796 9.95769 4.93425 9.76796 4.54955 9.51062C4.86359 10.072 5.25353 10.574 5.70321 10.9727L4.14174 11.3643C2.00932 11.8986 0.530273 13.806 0.530273 16.0038H2.33949C5.07557 16.0038 5.34076 16.0038 6.08704 16.0038H11.2033C11.9496 16.0038 11.8636 16 14 16L15.469 16.0038C15.4694 13.8064 13.9808 11.8982 11.8484 11.3652Z"
            fill="white" />
    </g>
</svg>