<svg width="43" height="43" viewBox="0 0 43 43" fill="none" xmlns="http://www.w3.org/2000/svg">
<g id="fa-solid:smile" clip-path="url(#clip0_601_5767)">
<path id="Vector" d="M20.8428 0.964844C9.60449 0.964844 0.499023 10.0703 0.499023 21.3086C0.499023 32.5469 9.60449 41.6523 20.8428 41.6523C32.0811 41.6523 41.1865 32.5469 41.1865 21.3086C41.1865 10.0703 32.0811 0.964844 20.8428 0.964844ZM27.4053 14.7461C28.8572 14.7461 30.0303 15.9191 30.0303 17.3711C30.0303 18.823 28.8572 19.9961 27.4053 19.9961C25.9533 19.9961 24.7803 18.823 24.7803 17.3711C24.7803 15.9191 25.9533 14.7461 27.4053 14.7461ZM14.2803 14.7461C15.7322 14.7461 16.9053 15.9191 16.9053 17.3711C16.9053 18.823 15.7322 19.9961 14.2803 19.9961C12.8283 19.9961 11.6553 18.823 11.6553 17.3711C11.6553 15.9191 12.8283 14.7461 14.2803 14.7461ZM30.26 28.7078C27.9221 31.5133 24.4932 33.1211 20.8428 33.1211C17.1924 33.1211 13.7635 31.5133 11.4256 28.7078C10.31 27.3707 12.3279 25.6973 13.4436 27.0262C15.2811 29.2328 17.9717 30.4879 20.8428 30.4879C23.7139 30.4879 26.4045 29.2246 28.242 27.0262C29.3412 25.6973 31.3674 27.3707 30.26 28.7078Z" fill="white"/>
</g>
<defs>
<clipPath id="clip0_601_5767">
<rect width="42" height="42" fill="white" transform="translate(0.5 0.964844)"/>
</clipPath>
</defs>
</svg>
